# xmcd
#
# Track frame offsets: 
#        182
#        18212
#        32412
#        45247
#        58950
#        78650
#        90392
#        101340
#        111780
#        130930
#
# Disc length: 1981 seconds
#
# Revision: 29
# Processed by: cddbd v1.5.2PL0 Copyright (c) Steve Scherf et al.
# Submitted via: ExactAudioCopyFreeDBPlugin 1.0
#
DISCID=6f07bb0a
DTITLE=Hank Williams, Jr. - Hank Williams, Jr.'s Greatest Hits
DYEAR=1993
DGENRE=Country
TTITLE0=Family Tradition
TTITLE1=Whiskey Bent And Hell Bound
TTITLE2=Women I've Never Had
TTITLE3=Old Habits
TTITLE4=Kaw-Liga
TTITLE5=Dixie On My Mind
TTITLE6=Texas Women
TTITLE7=The American Dream
TTITLE8=A Country Boy Can Survive
TTITLE9=All My Rowdy Friends (Have Settled Down)
EXTD=
EXTT0=
EXTT1=
EXTT2=
EXTT3=
EXTT4=
EXTT5=
EXTT6=
EXTT7=
EXTT8=
EXTT9=
PLAYORDER=
